<svg width="140" height="119" viewBox="0 0 140 119" fill="none" xmlns="http://www.w3.org/2000/svg">
<path d="M0 84.9375C0 83.4792 0.208333 81.9375 0.625 80.3125C2.04167 74.6458 3.6875 69.1042 5.5625 63.6875C7.47917 58.2292 9.20833 52.8125 10.75 47.4375C12.2917 42.0625 13.5625 37.5417 14.5625 33.875C15.6042 30.1667 16.5208 27 17.3125 24.375C18.1042 21.7083 18.8333 19.4167 19.5 17.5C20.1667 15.5833 20.8958 13.6875 21.6875 11.8125C22.1875 10.6875 22.7292 9.52083 23.3125 8.3125C23.9375 7.10417 24.6042 6 25.3125 5C26.0208 3.95833 26.75 3.125 27.5 2.5C28.2917 1.83333 29.1042 1.5 29.9375 1.5C31.6458 1.5 32.9375 1.79167 33.8125 2.375C34.7292 2.91667 35.2917 3.41667 35.5 3.875L36.0625 6.4375C36.6875 6.39583 37.5 6.29167 38.5 6.125C39.5 5.91667 40.5 5.70833 41.5 5.5C42.5417 5.29167 43.5 5.08333 44.375 4.875C45.25 4.66667 45.9167 4.47917 46.375 4.3125C49.125 3.5625 51.6667 2.91667 54 2.375C56.3333 1.83333 58.5417 1.39583 60.625 1.0625C62.75 0.6875 64.7708 0.416667 66.6875 0.25C68.6042 0.0833333 70.5417 0 72.5 0C74.4167 0 75.9792 0.104167 77.1875 0.3125C78.3958 0.520833 79.3542 0.8125 80.0625 1.1875C80.7708 1.52083 81.25 1.9375 81.5 2.4375C81.7917 2.89583 81.9375 3.39583 81.9375 3.9375C81.9375 4.4375 81.7917 4.97917 81.5 5.5625C81.25 6.10417 80.8125 6.625 80.1875 7.125C79.5625 7.625 78.75 8.0625 77.75 8.4375C76.75 8.8125 75.5 9.0625 74 9.1875C73.625 9.27083 72.75 9.4375 71.375 9.6875C70.0417 9.89583 68.5833 10.1458 67 10.4375C65.4167 10.6875 63.9167 10.9375 62.5 11.1875C61.0833 11.4375 60.1042 11.625 59.5625 11.75H59.625C59.375 11.7917 58.7708 11.9583 57.8125 12.25C56.8958 12.5 55.7708 12.8125 54.4375 13.1875C53.1042 13.5208 51.6458 13.9167 50.0625 14.375C48.5208 14.8333 46.9792 15.2917 45.4375 15.75C43.9375 16.1667 42.5417 16.5833 41.25 17C39.9583 17.375 38.9167 17.6875 38.125 17.9375C35.5833 18.9375 33.5833 20.2708 32.125 21.9375C30.7083 23.5625 29.5833 25.3958 28.75 27.4375C28.5833 27.8125 28.3333 28.4583 28 29.375C27.6667 30.25 27.2917 31.2708 26.875 32.4375C26.5 33.5625 26.0833 34.7708 25.625 36.0625C25.1667 37.3542 24.7292 38.5833 24.3125 39.75C23.8958 40.9167 23.5208 41.9792 23.1875 42.9375C22.8958 43.8958 22.6875 44.6042 22.5625 45.0625C22.4375 45.4792 22.3542 45.8542 22.3125 46.1875C22.2708 46.5208 22.25 46.7708 22.25 46.9375C22.25 47.1875 22.3125 47.3125 22.4375 47.3125C23.0625 47.3125 24.3542 47.0417 26.3125 46.5C28.3125 45.9167 30.625 45.2083 33.25 44.375C35.9167 43.5417 38.75 42.6458 41.75 41.6875C44.7917 40.7292 47.6875 39.8333 50.4375 39C53.2292 38.1667 55.7083 37.4792 57.875 36.9375C60.0417 36.3542 61.6042 36.0625 62.5625 36.0625C64.0208 36.0625 65 36.3125 65.5 36.8125C66 37.2708 66.25 37.7917 66.25 38.375C66.25 39.875 65.7083 41.1875 64.625 42.3125C63.5833 43.4375 62.2708 44.4167 60.6875 45.25C60.1875 45.5 59.25 45.875 57.875 46.375C56.5417 46.8333 55.0833 47.3125 53.5 47.8125C51.9583 48.3125 50.4792 48.7917 49.0625 49.25C47.6458 49.7083 46.625 50.0417 46 50.25C41.9167 51.8333 38.5833 53.1458 36 54.1875C33.4583 55.1875 31.3958 56.0208 29.8125 56.6875C28.2292 57.3125 27 57.7917 26.125 58.125C25.2917 58.4583 24.5 58.75 23.75 59C23.0417 59.2083 22.25 59.4167 21.375 59.625C20.5 59.8333 19.2917 60.125 17.75 60.5C17.375 61.375 16.9375 62.7083 16.4375 64.5C15.9375 66.25 15.4583 68.0833 15 70C14.5417 71.875 14.1458 73.625 13.8125 75.25C13.5208 76.875 13.375 78 13.375 78.625C13.375 79.375 13.4792 79.9375 13.6875 80.3125C13.8958 80.6458 14.1458 80.875 14.4375 81C14.7292 81.125 15.0208 81.1875 15.3125 81.1875C15.6042 81.1875 15.8333 81.1875 16 81.1875C18 81.1875 20.3958 80.8958 23.1875 80.3125C26.0208 79.7292 28.8125 78.9583 31.5625 78C34.1875 77.0833 36.4792 76.0833 38.4375 75C40.3958 73.9167 42.2292 72.9167 43.9375 72C45.6875 71.0417 47.375 70.25 49 69.625C50.6667 68.9583 52.4792 68.6042 54.4375 68.5625C54.8542 68.5625 55.3333 68.6042 55.875 68.6875C56.4583 68.7708 57 68.9375 57.5 69.1875C58 69.3958 58.3958 69.6875 58.6875 70.0625C59.0208 70.4375 59.1458 70.9167 59.0625 71.5C58.8958 72.7083 58.2917 73.8958 57.25 75.0625C56.2083 76.2292 54.8958 77.3542 53.3125 78.4375C51.7292 79.5208 49.9583 80.5625 48 81.5625C46.0417 82.5625 44.0417 83.5208 42 84.4375C39.9583 85.3125 37.9583 86.125 36 86.875C34.0417 87.5833 32.2917 88.2083 30.75 88.75C26.9167 90.0833 23.1875 91.0625 19.5625 91.6875C15.9375 92.3125 12.6875 92.625 9.8125 92.625C6.64583 92.625 4.20833 92.0208 2.5 90.8125C0.833333 89.6458 0 87.6875 0 84.9375ZM70.5625 112.688C71.3958 109.312 72.125 106.208 72.75 103.375C73.4167 100.583 74.0208 97.9375 74.5625 95.4375C75.1042 92.9792 75.6042 90.6042 76.0625 88.3125C76.5625 85.9792 77.0417 83.6458 77.5 81.3125C78 78.9375 78.5 76.4792 79 73.9375C79.5417 71.3958 80.125 68.625 80.75 65.625L83.75 51.125C84.25 48.6667 84.5833 46.5625 84.75 44.8125C84.9583 43.0208 85.0625 41.375 85.0625 39.875C85.0625 38.2917 85.1042 36.8958 85.1875 35.6875C85.2708 34.4375 85.5 33.3958 85.875 32.5625C86.25 31.6875 86.7917 31.0417 87.5 30.625C88.25 30.1667 89.2708 29.9375 90.5625 29.9375C92.4375 29.9375 93.8958 30.2083 94.9375 30.75C95.9792 31.25 96.75 31.9167 97.25 32.75C97.75 33.5833 98.0417 34.5417 98.125 35.625C98.25 36.7083 98.3125 37.8333 98.3125 39C99.7292 38 101.375 37.1042 103.25 36.3125C105.167 35.5208 107.146 34.875 109.188 34.375C111.229 33.8333 113.292 33.4167 115.375 33.125C117.458 32.8333 119.417 32.6875 121.25 32.6875C124.25 32.6875 126.875 33.2292 129.125 34.3125C131.375 35.3542 133.25 36.7708 134.75 38.5625C136.25 40.3125 137.375 42.3542 138.125 44.6875C138.875 46.9792 139.25 49.3542 139.25 51.8125C139.25 54.6875 138.792 57.3958 137.875 59.9375C136.958 62.4792 135.708 64.8542 134.125 67.0625C132.542 69.2708 130.688 71.3333 128.562 73.25C126.479 75.125 124.208 76.8542 121.75 78.4375C119.333 80.0208 116.812 81.4792 114.188 82.8125C111.604 84.1042 109.042 85.2708 106.5 86.3125C104.792 87.0208 103.167 87.5625 101.625 87.9375C100.125 88.2708 98.7708 88.4375 97.5625 88.4375C95.8542 88.4375 94.1875 88.25 92.5625 87.875C90.9792 87.5 89.4375 86.875 87.9375 86C87.1042 88.8333 86.3958 91.5417 85.8125 94.125C85.2708 96.7083 84.8333 99 84.5 101C84.2917 102.25 84.0417 103.562 83.75 104.938C83.4583 106.312 83.1667 107.646 82.875 108.938C82.5833 110.271 82.2917 111.521 82 112.688C81.75 113.854 81.5417 114.854 81.375 115.688C81.25 116.188 80.9375 116.604 80.4375 116.938C79.9792 117.271 79.4167 117.542 78.75 117.75C78.0833 118 77.3958 118.167 76.6875 118.25C76.0208 118.375 75.4167 118.438 74.875 118.438C71.7917 118.438 70.25 117.229 70.25 114.812C70.25 114.146 70.3542 113.438 70.5625 112.688ZM89.9375 76.4375C90.5625 76.5208 91.2292 76.625 91.9375 76.75C92.6458 76.875 93.3333 77 94 77.125C94.6667 77.25 95.2292 77.375 95.6875 77.5C96.1875 77.5833 96.5208 77.625 96.6875 77.625C97.4792 77.625 98.3542 77.5208 99.3125 77.3125C100.312 77.1042 101.292 76.8333 102.25 76.5C103.25 76.1667 104.208 75.8125 105.125 75.4375C106.042 75.0208 106.854 74.625 107.562 74.25C109.604 73.2083 111.771 71.9583 114.062 70.5C116.396 69 118.542 67.2917 120.5 65.375C122.5 63.4583 124.146 61.3125 125.438 58.9375C126.729 56.5625 127.375 53.9375 127.375 51.0625C127.375 49.8958 127.229 48.8125 126.938 47.8125C126.646 46.8125 126.208 45.9375 125.625 45.1875C125.042 44.4375 124.271 43.8542 123.312 43.4375C122.396 42.9792 121.292 42.75 120 42.75C118.583 42.75 117.25 42.8542 116 43.0625C114.75 43.2292 113.521 43.5208 112.312 43.9375C111.104 44.3542 109.896 44.8958 108.688 45.5625C107.479 46.1875 106.229 46.9583 104.938 47.875C103.771 48.8333 102.458 49.6875 101 50.4375C99.5417 51.1458 97.9583 51.6042 96.25 51.8125L89.9375 76.4375Z" fill="#C8B878"/>
</svg>
